<svg viewBox="0 0 300 300" xmlns="http://www.w3.org/2000/svg">
     <g id="shell" transform="translate(200, 180)"><path d="M 0 0 C -400 -400, 400 -400, 0 0 Z" transform="rotate(0) scale(0)" stroke="navy" fill="transparent"/><path d="M 0 0 C -400 -400, 400 -400, 0 0 Z" transform="rotate(3.6) scale(0.009900990099009901)" stroke="navy" fill="transparent"/><path d="M 0 0 C -400 -400, 400 -400, 0 0 Z" transform="rotate(7.2) scale(0.0196078431372549)" stroke="navy" fill="transparent"/><path d="M 0 0 C -400 -400, 400 -400, 0 0 Z" transform="rotate(10.8) scale(0.02912621359223301)" stroke="navy" fill="transparent"/><path d="M 0 0 C -400 -400, 400 -400, 0 0 Z" transform="rotate(14.4) scale(0.038461538461538464)" stroke="navy" fill="transparent"/><path d="M 0 0 C -400 -400, 400 -400, 0 0 Z" transform="rotate(18) scale(0.047619047619047616)" stroke="navy" fill="transparent"/><path d="M 0 0 C -400 -400, 400 -400, 0 0 Z" transform="rotate(21.6) scale(0.05660377358490566)" stroke="navy" fill="transparent"/><path d="M 0 0 C -400 -400, 400 -400, 0 0 Z" transform="rotate(25.2) scale(0.06542056074766354)" stroke="navy" fill="transparent"/><path d="M 0 0 C -400 -400, 400 -400, 0 0 Z" transform="rotate(28.8) scale(0.07407407407407407)" stroke="navy" fill="transparent"/><path d="M 0 0 C -400 -400, 400 -400, 0 0 Z" transform="rotate(32.4) scale(0.08256880733944955)" stroke="navy" fill="transparent"/><path d="M 0 0 C -400 -400, 400 -400, 0 0 Z" transform="rotate(36) scale(0.09090909090909091)" stroke="navy" fill="transparent"/><path d="M 0 0 C -400 -400, 400 -400, 0 0 Z" transform="rotate(39.6) scale(0.0990990990990991)" stroke="navy" fill="transparent"/><path d="M 0 0 C -400 -400, 400 -400, 0 0 Z" transform="rotate(43.2) scale(0.10714285714285714)" stroke="navy" fill="transparent"/><path d="M 0 0 C -400 -400, 400 -400, 0 0 Z" transform="rotate(46.800000000000004) scale(0.11504424778761062)" stroke="navy" fill="transparent"/><path d="M 0 0 C -400 -400, 400 -400, 0 0 Z" transform="rotate(50.4) scale(0.12280701754385964)" stroke="navy" fill="transparent"/><path d="M 0 0 C -400 -400, 400 -400, 0 0 Z" transform="rotate(54) scale(0.13043478260869565)" stroke="navy" fill="transparent"/><path d="M 0 0 C -400 -400, 400 -400, 0 0 Z" transform="rotate(57.6) scale(0.13793103448275862)" stroke="navy" fill="transparent"/><path d="M 0 0 C -400 -400, 400 -400, 0 0 Z" transform="rotate(61.2) scale(0.1452991452991453)" stroke="navy" fill="transparent"/><path d="M 0 0 C -400 -400, 400 -400, 0 0 Z" transform="rotate(64.8) scale(0.15254237288135594)" stroke="navy" fill="transparent"/><path d="M 0 0 C -400 -400, 400 -400, 0 0 Z" transform="rotate(68.4) scale(0.15966386554621848)" stroke="navy" fill="transparent"/><path d="M 0 0 C -400 -400, 400 -400, 0 0 Z" transform="rotate(72) scale(0.16666666666666666)" stroke="navy" fill="transparent"/><path d="M 0 0 C -400 -400, 400 -400, 0 0 Z" transform="rotate(75.60000000000001) scale(0.17355371900826447)" stroke="navy" fill="transparent"/><path d="M 0 0 C -400 -400, 400 -400, 0 0 Z" transform="rotate(79.2) scale(0.18032786885245902)" stroke="navy" fill="transparent"/><path d="M 0 0 C -400 -400, 400 -400, 0 0 Z" transform="rotate(82.8) scale(0.18699186991869918)" stroke="navy" fill="transparent"/><path d="M 0 0 C -400 -400, 400 -400, 0 0 Z" transform="rotate(86.4) scale(0.1935483870967742)" stroke="navy" fill="transparent"/><path d="M 0 0 C -400 -400, 400 -400, 0 0 Z" transform="rotate(90) scale(0.2)" stroke="navy" fill="transparent"/><path d="M 0 0 C -400 -400, 400 -400, 0 0 Z" transform="rotate(93.60000000000001) scale(0.20634920634920634)" stroke="navy" fill="transparent"/><path d="M 0 0 C -400 -400, 400 -400, 0 0 Z" transform="rotate(97.2) scale(0.2125984251968504)" stroke="navy" fill="transparent"/><path d="M 0 0 C -400 -400, 400 -400, 0 0 Z" transform="rotate(100.8) scale(0.21875)" stroke="navy" fill="transparent"/><path d="M 0 0 C -400 -400, 400 -400, 0 0 Z" transform="rotate(104.4) scale(0.2248062015503876)" stroke="navy" fill="transparent"/><path d="M 0 0 C -400 -400, 400 -400, 0 0 Z" transform="rotate(108) scale(0.23076923076923078)" stroke="navy" fill="transparent"/><path d="M 0 0 C -400 -400, 400 -400, 0 0 Z" transform="rotate(111.60000000000001) scale(0.2366412213740458)" stroke="navy" fill="transparent"/><path d="M 0 0 C -400 -400, 400 -400, 0 0 Z" transform="rotate(115.2) scale(0.24242424242424243)" stroke="navy" fill="transparent"/><path d="M 0 0 C -400 -400, 400 -400, 0 0 Z" transform="rotate(118.8) scale(0.24812030075187969)" stroke="navy" fill="transparent"/><path d="M 0 0 C -400 -400, 400 -400, 0 0 Z" transform="rotate(122.4) scale(0.2537313432835821)" stroke="navy" fill="transparent"/><path d="M 0 0 C -400 -400, 400 -400, 0 0 Z" transform="rotate(126) scale(0.25925925925925924)" stroke="navy" fill="transparent"/><path d="M 0 0 C -400 -400, 400 -400, 0 0 Z" transform="rotate(129.6) scale(0.2647058823529412)" stroke="navy" fill="transparent"/><path d="M 0 0 C -400 -400, 400 -400, 0 0 Z" transform="rotate(133.20000000000002) scale(0.27007299270072993)" stroke="navy" fill="transparent"/><path d="M 0 0 C -400 -400, 400 -400, 0 0 Z" transform="rotate(136.8) scale(0.2753623188405797)" stroke="navy" fill="transparent"/><path d="M 0 0 C -400 -400, 400 -400, 0 0 Z" transform="rotate(140.4) scale(0.2805755395683453)" stroke="navy" fill="transparent"/><path d="M 0 0 C -400 -400, 400 -400, 0 0 Z" transform="rotate(144) scale(0.2857142857142857)" stroke="navy" fill="transparent"/><path d="M 0 0 C -400 -400, 400 -400, 0 0 Z" transform="rotate(147.6) scale(0.2907801418439716)" stroke="navy" fill="transparent"/><path d="M 0 0 C -400 -400, 400 -400, 0 0 Z" transform="rotate(151.20000000000002) scale(0.29577464788732394)" stroke="navy" fill="transparent"/><path d="M 0 0 C -400 -400, 400 -400, 0 0 Z" transform="rotate(154.8) scale(0.3006993006993007)" stroke="navy" fill="transparent"/><path d="M 0 0 C -400 -400, 400 -400, 0 0 Z" transform="rotate(158.4) scale(0.3055555555555556)" stroke="navy" fill="transparent"/><path d="M 0 0 C -400 -400, 400 -400, 0 0 Z" transform="rotate(162) scale(0.3103448275862069)" stroke="navy" fill="transparent"/><path d="M 0 0 C -400 -400, 400 -400, 0 0 Z" transform="rotate(165.6) scale(0.3150684931506849)" stroke="navy" fill="transparent"/><path d="M 0 0 C -400 -400, 400 -400, 0 0 Z" transform="rotate(169.20000000000002) scale(0.3197278911564626)" stroke="navy" fill="transparent"/><path d="M 0 0 C -400 -400, 400 -400, 0 0 Z" transform="rotate(172.8) scale(0.32432432432432434)" stroke="navy" fill="transparent"/><path d="M 0 0 C -400 -400, 400 -400, 0 0 Z" transform="rotate(176.4) scale(0.3288590604026846)" stroke="navy" fill="transparent"/><path d="M 0 0 C -400 -400, 400 -400, 0 0 Z" transform="rotate(180) scale(0.3333333333333333)" stroke="navy" fill="transparent"/><path d="M 0 0 C -400 -400, 400 -400, 0 0 Z" transform="rotate(183.6) scale(0.33774834437086093)" stroke="navy" fill="transparent"/><path d="M 0 0 C -400 -400, 400 -400, 0 0 Z" transform="rotate(187.20000000000002) scale(0.34210526315789475)" stroke="navy" fill="transparent"/><path d="M 0 0 C -400 -400, 400 -400, 0 0 Z" transform="rotate(190.8) scale(0.3464052287581699)" stroke="navy" fill="transparent"/><path d="M 0 0 C -400 -400, 400 -400, 0 0 Z" transform="rotate(194.4) scale(0.35064935064935066)" stroke="navy" fill="transparent"/><path d="M 0 0 C -400 -400, 400 -400, 0 0 Z" transform="rotate(198) scale(0.3548387096774194)" stroke="navy" fill="transparent"/><path d="M 0 0 C -400 -400, 400 -400, 0 0 Z" transform="rotate(201.6) scale(0.358974358974359)" stroke="navy" fill="transparent"/><path d="M 0 0 C -400 -400, 400 -400, 0 0 Z" transform="rotate(205.20000000000002) scale(0.3630573248407643)" stroke="navy" fill="transparent"/><path d="M 0 0 C -400 -400, 400 -400, 0 0 Z" transform="rotate(208.8) scale(0.3670886075949367)" stroke="navy" fill="transparent"/><path d="M 0 0 C -400 -400, 400 -400, 0 0 Z" transform="rotate(212.4) scale(0.3710691823899371)" stroke="navy" fill="transparent"/><path d="M 0 0 C -400 -400, 400 -400, 0 0 Z" transform="rotate(216) scale(0.375)" stroke="navy" fill="transparent"/><path d="M 0 0 C -400 -400, 400 -400, 0 0 Z" transform="rotate(219.6) scale(0.37888198757763975)" stroke="navy" fill="transparent"/><path d="M 0 0 C -400 -400, 400 -400, 0 0 Z" transform="rotate(223.20000000000002) scale(0.38271604938271603)" stroke="navy" fill="transparent"/><path d="M 0 0 C -400 -400, 400 -400, 0 0 Z" transform="rotate(226.8) scale(0.38650306748466257)" stroke="navy" fill="transparent"/><path d="M 0 0 C -400 -400, 400 -400, 0 0 Z" transform="rotate(230.4) scale(0.3902439024390244)" stroke="navy" fill="transparent"/><path d="M 0 0 C -400 -400, 400 -400, 0 0 Z" transform="rotate(234) scale(0.3939393939393939)" stroke="navy" fill="transparent"/><path d="M 0 0 C -400 -400, 400 -400, 0 0 Z" transform="rotate(237.6) scale(0.39759036144578314)" stroke="navy" fill="transparent"/><path d="M 0 0 C -400 -400, 400 -400, 0 0 Z" transform="rotate(241.20000000000002) scale(0.40119760479041916)" stroke="navy" fill="transparent"/><path d="M 0 0 C -400 -400, 400 -400, 0 0 Z" transform="rotate(244.8) scale(0.40476190476190477)" stroke="navy" fill="transparent"/><path d="M 0 0 C -400 -400, 400 -400, 0 0 Z" transform="rotate(248.4) scale(0.40828402366863903)" stroke="navy" fill="transparent"/><path d="M 0 0 C -400 -400, 400 -400, 0 0 Z" transform="rotate(252) scale(0.4117647058823529)" stroke="navy" fill="transparent"/><path d="M 0 0 C -400 -400, 400 -400, 0 0 Z" transform="rotate(255.6) scale(0.4152046783625731)" stroke="navy" fill="transparent"/><path d="M 0 0 C -400 -400, 400 -400, 0 0 Z" transform="rotate(259.2) scale(0.4186046511627907)" stroke="navy" fill="transparent"/><path d="M 0 0 C -400 -400, 400 -400, 0 0 Z" transform="rotate(262.8) scale(0.42196531791907516)" stroke="navy" fill="transparent"/><path d="M 0 0 C -400 -400, 400 -400, 0 0 Z" transform="rotate(266.40000000000003) scale(0.42528735632183906)" stroke="navy" fill="transparent"/><path d="M 0 0 C -400 -400, 400 -400, 0 0 Z" transform="rotate(270) scale(0.42857142857142855)" stroke="navy" fill="transparent"/><path d="M 0 0 C -400 -400, 400 -400, 0 0 Z" transform="rotate(273.6) scale(0.4318181818181818)" stroke="navy" fill="transparent"/><path d="M 0 0 C -400 -400, 400 -400, 0 0 Z" transform="rotate(277.2) scale(0.4350282485875706)" stroke="navy" fill="transparent"/><path d="M 0 0 C -400 -400, 400 -400, 0 0 Z" transform="rotate(280.8) scale(0.43820224719101125)" stroke="navy" fill="transparent"/><path d="M 0 0 C -400 -400, 400 -400, 0 0 Z" transform="rotate(284.40000000000003) scale(0.441340782122905)" stroke="navy" fill="transparent"/><path d="M 0 0 C -400 -400, 400 -400, 0 0 Z" transform="rotate(288) scale(0.4444444444444444)" stroke="navy" fill="transparent"/><path d="M 0 0 C -400 -400, 400 -400, 0 0 Z" transform="rotate(291.6) scale(0.44751381215469616)" stroke="navy" fill="transparent"/><path d="M 0 0 C -400 -400, 400 -400, 0 0 Z" transform="rotate(295.2) scale(0.45054945054945056)" stroke="navy" fill="transparent"/><path d="M 0 0 C -400 -400, 400 -400, 0 0 Z" transform="rotate(298.8) scale(0.453551912568306)" stroke="navy" fill="transparent"/><path d="M 0 0 C -400 -400, 400 -400, 0 0 Z" transform="rotate(302.40000000000003) scale(0.45652173913043476)" stroke="navy" fill="transparent"/><path d="M 0 0 C -400 -400, 400 -400, 0 0 Z" transform="rotate(306) scale(0.4594594594594595)" stroke="navy" fill="transparent"/><path d="M 0 0 C -400 -400, 400 -400, 0 0 Z" transform="rotate(309.6) scale(0.46236559139784944)" stroke="navy" fill="transparent"/><path d="M 0 0 C -400 -400, 400 -400, 0 0 Z" transform="rotate(313.2) scale(0.46524064171123)" stroke="navy" fill="transparent"/><path d="M 0 0 C -400 -400, 400 -400, 0 0 Z" transform="rotate(316.8) scale(0.46808510638297873)" stroke="navy" fill="transparent"/><path d="M 0 0 C -400 -400, 400 -400, 0 0 Z" transform="rotate(320.40000000000003) scale(0.4708994708994709)" stroke="navy" fill="transparent"/><path d="M 0 0 C -400 -400, 400 -400, 0 0 Z" transform="rotate(324) scale(0.47368421052631576)" stroke="navy" fill="transparent"/><path d="M 0 0 C -400 -400, 400 -400, 0 0 Z" transform="rotate(327.6) scale(0.47643979057591623)" stroke="navy" fill="transparent"/><path d="M 0 0 C -400 -400, 400 -400, 0 0 Z" transform="rotate(331.2) scale(0.4791666666666667)" stroke="navy" fill="transparent"/><path d="M 0 0 C -400 -400, 400 -400, 0 0 Z" transform="rotate(334.8) scale(0.48186528497409326)" stroke="navy" fill="transparent"/><path d="M 0 0 C -400 -400, 400 -400, 0 0 Z" transform="rotate(338.40000000000003) scale(0.4845360824742268)" stroke="navy" fill="transparent"/><path d="M 0 0 C -400 -400, 400 -400, 0 0 Z" transform="rotate(342) scale(0.48717948717948717)" stroke="navy" fill="transparent"/><path d="M 0 0 C -400 -400, 400 -400, 0 0 Z" transform="rotate(345.6) scale(0.4897959183673469)" stroke="navy" fill="transparent"/><path d="M 0 0 C -400 -400, 400 -400, 0 0 Z" transform="rotate(349.2) scale(0.49238578680203043)" stroke="navy" fill="transparent"/><path d="M 0 0 C -400 -400, 400 -400, 0 0 Z" transform="rotate(352.8) scale(0.494949494949495)" stroke="navy" fill="transparent"/><path d="M 0 0 C -400 -400, 400 -400, 0 0 Z" transform="rotate(356.40000000000003) scale(0.49748743718592964)" stroke="navy" fill="transparent"/></g>
    </svg>