<svg width="178" height="178" viewBox="0 0 78 78" fill="none" xmlns="http://www.w3.org/2000/svg" class="rotate" transform="scale(0.2)" overflow="visible">
      <style>
                .rotate {
                    animation: rotation 25s infinite linear;
                }
                @keyframes rotation {
                    from {
                        transform: rotate(0deg);
                    }
                    to {
                transform: rotate(359deg)
                }
            }
        </style>
<g >
<g style="mix-blend-mode:multiply">
<path d="M40.92 43.99C96.92 5.76 7.51 -31.51 40.92 43.99Z" stroke="#C3C54E" stroke-width="0.5" stroke-miterlimit="10"/>
</g>
<g style="mix-blend-mode:multiply">
<path d="M40.92 43.99C79.09 -16.73 30.06 -3.97 40.92 43.99Z" stroke="#C3C54E" stroke-width="0.5" stroke-miterlimit="10"/>
</g>
<g style="mix-blend-mode:multiply">
<path d="M40.92 43.99C106.51 33.94 8.2 -31.14 40.92 43.99Z" stroke="#C3C54E" stroke-width="0.5" stroke-miterlimit="10"/>
</g>
<g style="mix-blend-mode:multiply">
<path d="M40.92 43.99C107.39 59.97 68.85 97.5 40.92 43.99Z" stroke="#C3C54E" stroke-width="0.5" stroke-miterlimit="10"/>
</g>
<g style="mix-blend-mode:multiply">
<path d="M40.92 43.99C84.65 45.06 43.58 68.18 40.92 43.99Z" stroke="#C3C54E" stroke-width="0.5" stroke-miterlimit="10"/>
</g>
<g style="mix-blend-mode:multiply">
<path d="M40.92 43.99C50.03 63.63 9.72 95.35 40.92 43.99Z" stroke="#C3C54E" stroke-width="0.5" stroke-miterlimit="10"/>
</g>
<g style="mix-blend-mode:multiply">
<path d="M40.92 43.99C70.24 106.47 -8.86 49.49 40.92 43.99Z" stroke="#C3C54E" stroke-width="0.5" stroke-miterlimit="10"/>
</g>
<g style="mix-blend-mode:multiply">
<path d="M40.92 43.99C69.36 108.74 -0.900002 63.51 40.92 43.99Z" stroke="#C3C54E" stroke-width="0.5" stroke-miterlimit="10"/>
</g>
<g style="mix-blend-mode:multiply">
<path d="M40.92 43.99C27.26 -1.69 -10.5 106.09 40.92 43.99Z" stroke="#C3C54E" stroke-width="0.5" stroke-miterlimit="10"/>
</g>
<g style="mix-blend-mode:multiply">
<path d="M40.92 43.99C21.25 -9.78 -39.82 38.24 40.92 43.99Z" stroke="#C3C54E" stroke-width="0.5" stroke-miterlimit="10"/>
</g>
</g>
</svg>
